<?xml version="1.0" encoding="UTF-8"?>
<!DOCTYPE svg PUBLIC "-//W3C//DTD SVG 1.1//EN" "http://www.w3.org/Graphics/SVG/1.1/DTD/svg11.dtd">
<!-- Creator: CorelDRAW X7 -->
<svg xmlns="http://www.w3.org/2000/svg" xml:space="preserve" width="210mm" height="297mm" version="1.1" style="shape-rendering:geometricPrecision; text-rendering:geometricPrecision; image-rendering:optimizeQuality; fill-rule:evenodd; clip-rule:evenodd"
viewBox="0 0 21000 29700"
 xmlns:xlink="http://www.w3.org/1999/xlink">
 <defs>
  <style type="text/css">
   <![CDATA[
    .fil1 {fill:#FEFEFE}
    .fil0 {fill:white}
   ]]>
  </style>
 </defs>
 <g id="Слой_x0020_1">
  <metadata id="CorelCorpID_0Corel-Layer"/>
  <g id="_2299447775664">
   <path class="fil0" d="M6755 16944l-2020 -1197 -314 -654 -352 -144 266 -243 -301 -363 2152 97c254,98 7,129 12,195l-1403 -62 -84 484 568 -12c841,-313 1281,-85 1767,88 774,-728 1698,-1110 2805,-1075 -37,171 -218,358 -110,515l-303 122 400 84c266,-427 1035,157 772,506l1405 75c1093,-408 2238,-468 3471,47 683,170 1188,376 1463,630 151,426 67,732 -122,992l-10072 -85z"/>
   <ellipse class="fil1" cx="5984" cy="16185" rx="1123" ry="1057"/>
   <ellipse class="fil1" cx="14303" cy="16298" rx="1123" ry="1057"/>
  </g>
 </g>
</svg>
