<?xml version="1.0" encoding="UTF-8"?>
<!DOCTYPE svg PUBLIC "-//W3C//DTD SVG 1.1//EN" "http://www.w3.org/Graphics/SVG/1.1/DTD/svg11.dtd">
<!-- Creator: CorelDRAW X7 -->
<svg xmlns="http://www.w3.org/2000/svg" xml:space="preserve" width="162.56mm" height="91.44mm" version="1.1" style="shape-rendering:geometricPrecision; text-rendering:geometricPrecision; image-rendering:optimizeQuality; fill-rule:evenodd; clip-rule:evenodd"
viewBox="0 0 16256 9144"
 xmlns:xlink="http://www.w3.org/1999/xlink">
 <defs>
  <style type="text/css">
   <![CDATA[
    .str0 {stroke:white;stroke-width:84.66}
    .fil0 {fill:none}
    .fil1 {fill:#FEFEFE}
   ]]>
  </style>
 </defs>
 <g id="Слой_x0020_1">
  <metadata id="CorelCorpID_0Corel-Layer"/>
  <path class="fil0 str0" d="M9652 3023c-1017,-436 -2089,-488 -3234,-17 -236,1460 442,2658 1608,3700 1137,-964 1905,-2091 1626,-3683z"/>
  <path class="fil1" d="M7815 3683l-212 152 -237 -160 -85 -9 -237 390 0 67 -42 51 0 102 144 -93 -34 -43 42 -101 9 -51 93 -85 25 -85 51 9 161 178 -203 -64 -72 34 -38 72 4 144c2,4 1,4 1,8l29 204 135 254 51 -43 8 -127 -84 -50 -34 -111 -17 -211 42 -17 254 186 68 26 330 381 -42 50 68 263 84 152 -51 34 -499 0 -76 59 17 51 135 17 42 -42 297 -9 161 51 59 -17 25 -68 76 161 -262 237 -34 51 -110 93 85 17 144 -17 0 -67 220 -221 93 -50 -17 -77 -51 -76 43 -118 262 -229 25 -110 119 17 186 -127 76 -169 -8 -314 85 -127 -26 -67 -42 93 -59 76 -26 -76 110 -178 -8 -51 -110 136 -34 -60 127 -169 -93 8 -110 204 50 474 -59 161c-8,7 -25,27 -38,26l-165 16 -42 -144 -356 -339 -59 -84 0 -178 127 34 93 93 25 -68 -8 -144 101 -169 -16 -254 93 -203 -26 -102 -144 -59 -161 -119 -101 -25 -76 -85 -26 119 -110 -59 -42 25 42 85 -178 76 -118 25 -42 127 118 0 -76 59 118 -25 221 42 0 119 -178 237z"/>
 </g>
</svg>
