<?xml version="1.0" encoding="UTF-8"?>
<!DOCTYPE svg PUBLIC "-//W3C//DTD SVG 1.1//EN" "http://www.w3.org/Graphics/SVG/1.1/DTD/svg11.dtd">
<!-- Creator: CorelDRAW X7 -->
<svg xmlns="http://www.w3.org/2000/svg" xml:space="preserve" width="162.56mm" height="91.44mm" version="1.1" style="shape-rendering:geometricPrecision; text-rendering:geometricPrecision; image-rendering:optimizeQuality; fill-rule:evenodd; clip-rule:evenodd"
viewBox="0 0 16256 9144"
 xmlns:xlink="http://www.w3.org/1999/xlink">
 <defs>
  <style type="text/css">
   <![CDATA[
    .str0 {stroke:white;stroke-width:42.33}
    .fil0 {fill:none}
    .fil1 {fill:#FEFEFE}
   ]]>
  </style>
 </defs>
 <g id="Слой_x0020_1">
  <metadata id="CorelCorpID_0Corel-Layer"/>
  <ellipse class="fil0 str0" cx="8133" cy="4650" rx="1251" ry="1204"/>
  <polygon class="fil1" points="5105,4081 5122,3929 5249,4013 5419,4047 5486,4115 5486,4225 5342,4352 5232,4470 5224,4597 5309,4691 5469,4691 5800,4470 6045,4437 6282,4250 6426,4259 6553,4132 6782,4064 6934,3971 7078,3962 7214,4039 7552,4352 7705,4547 7747,4826 7806,4987 7925,5173 8035,5275 7976,5292 7832,5148 7764,5072 7781,5165 7857,5292 7976,5359 7891,5385 7722,5266 7612,5309 7425,5326 7290,5368 7214,5351 7197,5258 7256,5199 7205,5173 7239,5105 7324,5004 7324,4953 7095,5004 7053,4978 7112,4902 7095,4767 7027,4945 6968,4978 7104,5173 7129,5258 7053,5385 6943,5402 6782,5478 6621,5486 6511,5359 6443,5334 6392,5241 6562,5224 6646,5351 6773,5385 6875,5292 6816,5190 6638,5055 6621,4953 6579,5004 6587,5097 6096,5080 6020,5224 5901,5326 5757,5368 5622,5334 5469,5427 5309,5444 5241,5537 5097,5546 4953,5563 4970,5376 5055,5376 5148,5249 5241,5334 5342,5266 5368,5148 5554,5105 5596,5046 5546,4919 5537,4775 5292,4767 5156,4665 5122,4555 5190,4386 5351,4242 5376,4183 5199,4166 "/>
  <polygon class="fil1" points="11147,4093 11130,3941 11003,4026 10834,4060 10766,4127 10766,4237 10910,4364 11020,4483 11029,4610 10944,4703 10783,4703 10453,4483 10207,4449 9970,4263 9826,4271 9699,4144 9471,4076 9318,3983 9174,3975 9039,4051 8700,4364 8548,4559 8506,4838 8446,4999 8328,5186 8218,5287 8277,5304 8421,5160 8489,5084 8472,5177 8396,5304 8277,5372 8362,5397 8531,5279 8641,5321 8827,5338 8963,5380 9039,5363 9056,5270 8997,5211 9047,5186 9014,5118 8929,5016 8929,4965 9158,5016 9200,4991 9141,4915 9158,4779 9225,4957 9285,4991 9149,5186 9124,5270 9200,5397 9310,5414 9471,5490 9632,5499 9742,5372 9809,5346 9860,5253 9691,5236 9606,5363 9479,5397 9378,5304 9437,5203 9615,5067 9632,4965 9674,5016 9666,5109 10157,5092 10233,5236 10351,5338 10495,5380 10631,5346 10783,5440 10944,5457 11012,5550 11156,5558 11300,5575 11283,5389 11198,5389 11105,5262 11012,5346 10910,5279 10885,5160 10698,5118 10656,5059 10707,4932 10715,4788 10961,4779 11096,4678 11130,4568 11063,4398 10902,4254 10876,4195 11054,4178 "/>
 </g>
</svg>
